<?xml version="1.0" encoding="UTF-8" standalone="no"?>
<!DOCTYPE svg PUBLIC "-//W3C//DTD SVG 1.1//EN"
 "http://www.w3.org/Graphics/SVG/1.1/DTD/svg11.dtd">
<!-- Generated by graphviz version 14.0.4 (20251115.1723)
 -->
<!-- Title: aws_architecture_static Pages: 1 -->
<svg width="2277pt" height="519pt"
 viewBox="0.00 0.00 2277.00 519.00" xmlns="http://www.w3.org/2000/svg" xmlns:xlink="http://www.w3.org/1999/xlink">
<g id="graph0" class="graph" transform="scale(1 1) rotate(0) translate(28.8 489.8)">
<title>aws_architecture_static</title>
<polygon fill="white" stroke="none" points="-28.8,28.8 -28.8,-489.8 2247.9,-489.8 2247.9,28.8 -28.8,28.8"/>
<g id="clust1" class="cluster">
<title>cluster_aws</title>
<path fill="#f4f6f9" stroke="#d9dee7" d="M291.55,-8C291.55,-8 2199.1,-8 2199.1,-8 2205.1,-8 2211.1,-14 2211.1,-20 2211.1,-20 2211.1,-441 2211.1,-441 2211.1,-447 2205.1,-453 2199.1,-453 2199.1,-453 291.55,-453 291.55,-453 285.55,-453 279.55,-447 279.55,-441 279.55,-441 279.55,-20 279.55,-20 279.55,-14 285.55,-8 291.55,-8"/>
<text xml:space="preserve" text-anchor="start" x="1154.58" y="-436.7" font-family="Helvetica,sans-Serif" font-size="14.00"> &#160;&#160;&#160;&#160;&#160;</text>
<text xml:space="preserve" text-anchor="start" x="1177.08" y="-436.7" font-family="Helvetica,sans-Serif" font-weight="bold" font-size="14.00">AWS Region us&#45;east&#45;2</text>
<text xml:space="preserve" text-anchor="start" x="1321.08" y="-436.7" font-family="Helvetica,sans-Serif" font-size="14.00"> &#160;&#160;&#160;</text>
</g>
<g id="clust2" class="cluster">
<title>cluster_vpc</title>
<path fill="#fafbfc" stroke="#c7d0dc" d="M1255.45,-16C1255.45,-16 2191.1,-16 2191.1,-16 2197.1,-16 2203.1,-22 2203.1,-28 2203.1,-28 2203.1,-410 2203.1,-410 2203.1,-416 2197.1,-422 2191.1,-422 2191.1,-422 1255.45,-422 1255.45,-422 1249.45,-422 1243.45,-416 1243.45,-410 1243.45,-410 1243.45,-28 1243.45,-28 1243.45,-22 1249.45,-16 1255.45,-16"/>
<text xml:space="preserve" text-anchor="start" x="1654.65" y="-405.7" font-family="Helvetica,sans-Serif" font-size="14.00"> &#160;&#160;&#160;&#160;&#160;&#160;&#160;</text>
<text xml:space="preserve" text-anchor="start" x="1684.65" y="-405.7" font-family="Helvetica,sans-Serif" font-weight="bold" font-size="14.00">Amazon VPC</text>
<text xml:space="preserve" text-anchor="start" x="1769.4" y="-405.7" font-family="Helvetica,sans-Serif" font-size="14.00"> &#160;&#160;&#160;&#160;&#160;</text>
</g>
<!-- client -->
<g id="node1" class="node">
<title>client</title>
<path fill="#f8fafc" stroke="#d5dbe3" stroke-width="1.2" d="M176.55,-200.08C176.55,-200.08 12,-200.08 12,-200.08 6,-200.08 0,-194.08 0,-188.08 0,-188.08 0,-165.92 0,-165.92 0,-159.92 6,-153.92 12,-153.92 12,-153.92 176.55,-153.92 176.55,-153.92 182.55,-153.92 188.55,-159.92 188.55,-165.92 188.55,-165.92 188.55,-188.08 188.55,-188.08 188.55,-194.08 182.55,-200.08 176.55,-200.08"/>
<text xml:space="preserve" text-anchor="start" x="64.28" y="-178.65" font-family="Helvetica,sans-Serif" font-size="13.00"> &#160;&#160;&#160;&#160;&#160;</text>
<text xml:space="preserve" text-anchor="start" x="86.78" y="-178.65" font-family="Helvetica,sans-Serif" font-weight="bold" font-size="13.00">Client</text>
<text xml:space="preserve" text-anchor="start" x="14.4" y="-165.65" font-family="Helvetica,sans-Serif" font-size="13.00"> &#160;&#160;&#160;&#160;&#160;Browser / Demo App &#160;&#160;&#160;</text>
</g>
<!-- cognito -->
<g id="node2" class="node">
<title>cognito</title>
<path fill="#d13212" stroke="#b4230a" stroke-width="1.2" d="M440.85,-243.08C440.85,-243.08 299.55,-243.08 299.55,-243.08 293.55,-243.08 287.55,-237.08 287.55,-231.08 287.55,-231.08 287.55,-208.92 287.55,-208.92 287.55,-202.92 293.55,-196.92 299.55,-196.92 299.55,-196.92 440.85,-196.92 440.85,-196.92 446.85,-196.92 452.85,-202.92 452.85,-208.92 452.85,-208.92 452.85,-231.08 452.85,-231.08 452.85,-237.08 446.85,-243.08 440.85,-243.08"/>
<text xml:space="preserve" text-anchor="start" x="301.95" y="-221.65" font-family="Helvetica,sans-Serif" font-size="13.00" fill="white"> &#160;&#160;&#160;&#160;&#160;&#160;&#160;</text>
<text xml:space="preserve" text-anchor="start" x="331.95" y="-221.65" font-family="Helvetica,sans-Serif" font-weight="bold" font-size="13.00" fill="white">Amazon Cognito</text>
<text xml:space="preserve" text-anchor="start" x="301.95" y="-208.65" font-family="Helvetica,sans-Serif" font-size="13.00" fill="white"> &#160;&#160;&#160;&#160;&#160;&#160;&#160;Authentication &#160;&#160;&#160;&#160;&#160;</text>
</g>
<!-- client&#45;&gt;cognito -->
<g id="edge1" class="edge">
<title>client&#45;&gt;cognito</title>
<path fill="none" stroke="#4a5568" stroke-width="1.6" d="M188.78,-191.68C217.34,-196.16 248.71,-201.09 277.17,-205.55"/>
<polygon fill="#4a5568" stroke="#4a5568" stroke-width="1.6" points="276.38,-208.26 284.72,-206.74 277.25,-202.73 276.38,-208.26"/>
<text xml:space="preserve" text-anchor="middle" x="238.05" y="-202.62" font-family="Helvetica,sans-Serif" font-size="11.00">Sign in</text>
</g>
<!-- apigw -->
<g id="node3" class="node">
<title>apigw</title>
<path fill="#7d3ac1" stroke="#61279a" stroke-width="1.2" d="M722.4,-204.08C722.4,-204.08 553.35,-204.08 553.35,-204.08 547.35,-204.08 541.35,-198.08 541.35,-192.08 541.35,-192.08 541.35,-169.92 541.35,-169.92 541.35,-163.92 547.35,-157.92 553.35,-157.92 553.35,-157.92 722.4,-157.92 722.4,-157.92 728.4,-157.92 734.4,-163.92 734.4,-169.92 734.4,-169.92 734.4,-192.08 734.4,-192.08 734.4,-198.08 728.4,-204.08 722.4,-204.08"/>
<text xml:space="preserve" text-anchor="start" x="555.75" y="-182.65" font-family="Helvetica,sans-Serif" font-size="13.00" fill="white"> &#160;&#160;&#160;&#160;&#160;&#160;&#160;</text>
<text xml:space="preserve" text-anchor="start" x="585.75" y="-182.65" font-family="Helvetica,sans-Serif" font-weight="bold" font-size="13.00" fill="white">Amazon API Gateway</text>
<text xml:space="preserve" text-anchor="start" x="562.13" y="-169.65" font-family="Helvetica,sans-Serif" font-size="13.00" fill="white"> &#160;&#160;&#160;&#160;&#160;&#160;&#160;Public HTTP API &#160;&#160;&#160;&#160;&#160;</text>
</g>
<!-- client&#45;&gt;apigw -->
<g id="edge2" class="edge">
<title>client&#45;&gt;apigw</title>
<path fill="none" stroke="#4a5568" stroke-width="1.6" d="M189.03,-169.88C234.55,-166.42 279.55,-163 279.55,-163 279.55,-163 452.85,-163 452.85,-163 452.85,-163 489.85,-166.62 530.66,-170.61"/>
<polygon fill="#4a5568" stroke="#4a5568" stroke-width="1.6" points="530.18,-173.38 538.41,-171.37 530.72,-167.8 530.18,-173.38"/>
<text xml:space="preserve" text-anchor="middle" x="370.2" y="-164.55" font-family="Helvetica,sans-Serif" font-size="11.00">API requests</text>
</g>
<!-- cognito&#45;&gt;apigw -->
<g id="edge3" class="edge">
<title>cognito&#45;&gt;apigw</title>
<path fill="none" stroke="#4a5568" stroke-width="1.6" d="M453.44,-207.93C477.93,-204.33 505.11,-200.34 530.88,-196.56"/>
<polygon fill="#4a5568" stroke="#4a5568" stroke-width="1.6" points="531.16,-199.35 538.67,-195.42 530.35,-193.81 531.16,-199.35"/>
<text xml:space="preserve" text-anchor="middle" x="497.1" y="-204.39" font-family="Helvetica,sans-Serif" font-size="11.00">JWT</text>
</g>
<!-- alb -->
<g id="node4" class="node">
<title>alb</title>
<path fill="#3b7cff" stroke="#2c5fc9" stroke-width="1.2" d="M1103.7,-210.58C1103.7,-210.58 873.9,-210.58 873.9,-210.58 867.9,-210.58 861.9,-204.58 861.9,-198.58 861.9,-198.58 861.9,-163.42 861.9,-163.42 861.9,-157.42 867.9,-151.42 873.9,-151.42 873.9,-151.42 1103.7,-151.42 1103.7,-151.42 1109.7,-151.42 1115.7,-157.42 1115.7,-163.42 1115.7,-163.42 1115.7,-198.58 1115.7,-198.58 1115.7,-204.58 1109.7,-210.58 1103.7,-210.58"/>
<text xml:space="preserve" text-anchor="start" x="934.43" y="-189.15" font-family="Helvetica,sans-Serif" font-size="13.00" fill="white"> &#160;&#160;&#160;&#160;&#160;&#160;&#160;</text>
<text xml:space="preserve" text-anchor="start" x="964.43" y="-189.15" font-family="Helvetica,sans-Serif" font-weight="bold" font-size="13.00" fill="white">Internal ALB</text>
<text xml:space="preserve" text-anchor="start" x="938.55" y="-176.15" font-family="Helvetica,sans-Serif" font-size="13.00" fill="white"> &#160;&#160;&#160;&#160;&#160;&#160;&#160;Listener :80</text>
<text xml:space="preserve" text-anchor="start" x="876.3" y="-163.15" font-family="Helvetica,sans-Serif" font-size="13.00" fill="white"> &#160;&#160;&#160;&#160;&#160;&#160;&#160;Target group to order&#45;service &#160;&#160;&#160;&#160;&#160;</text>
</g>
<!-- apigw&#45;&gt;alb -->
<g id="edge4" class="edge">
<title>apigw&#45;&gt;alb</title>
<path fill="none" stroke="#4a5568" stroke-width="1.6" d="M734.68,-181C770.61,-181 812.17,-181 851.09,-181"/>
<polygon fill="#4a5568" stroke="#4a5568" stroke-width="1.6" points="851.04,-183.8 859.04,-181 851.04,-178.2 851.04,-183.8"/>
<text xml:space="preserve" text-anchor="middle" x="798.15" y="-182.55" font-family="Helvetica,sans-Serif" font-size="11.00">Private route</text>
</g>
<!-- order -->
<g id="node6" class="node">
<title>order</title>
<path fill="#2f6db2" stroke="#24568c" stroke-width="1.2" d="M1464,-204.08C1464,-204.08 1273.95,-204.08 1273.95,-204.08 1267.95,-204.08 1261.95,-198.08 1261.95,-192.08 1261.95,-192.08 1261.95,-169.92 1261.95,-169.92 1261.95,-163.92 1267.95,-157.92 1273.95,-157.92 1273.95,-157.92 1464,-157.92 1464,-157.92 1470,-157.92 1476,-163.92 1476,-169.92 1476,-169.92 1476,-192.08 1476,-192.08 1476,-198.08 1470,-204.08 1464,-204.08"/>
<text xml:space="preserve" text-anchor="start" x="1307.48" y="-182.65" font-family="Helvetica,sans-Serif" font-size="13.00" fill="white"> &#160;&#160;&#160;&#160;&#160;&#160;&#160;&#160;&#160;</text>
<text xml:space="preserve" text-anchor="start" x="1344.98" y="-182.65" font-family="Helvetica,sans-Serif" font-weight="bold" font-size="13.00" fill="white">order&#45;service</text>
<text xml:space="preserve" text-anchor="start" x="1276.35" y="-169.65" font-family="Helvetica,sans-Serif" font-size="13.00" fill="white"> &#160;&#160;&#160;&#160;&#160;&#160;&#160;&#160;&#160;Public business API &#160;&#160;&#160;&#160;&#160;&#160;&#160;</text>
</g>
<!-- alb&#45;&gt;order -->
<g id="edge5" class="edge">
<title>alb&#45;&gt;order</title>
<path fill="none" stroke="#4a5568" stroke-width="1.6" d="M1116.25,-181C1159.89,-181 1208.54,-181 1251.35,-181"/>
<polygon fill="#4a5568" stroke="#4a5568" stroke-width="1.6" points="1251.1,-183.8 1259.1,-181 1251.1,-178.2 1251.1,-183.8"/>
<text xml:space="preserve" text-anchor="middle" x="1183.58" y="-182.55" font-family="Helvetica,sans-Serif" font-size="11.00">Forward traffic</text>
</g>
<!-- ecs -->
<g id="node5" class="node">
<title>ecs</title>
<path fill="#ff9900" stroke="#d27a00" stroke-width="1.2" d="M1461.38,-71.08C1461.38,-71.08 1276.58,-71.08 1276.58,-71.08 1270.58,-71.08 1264.58,-65.08 1264.58,-59.08 1264.58,-59.08 1264.58,-36.92 1264.58,-36.92 1264.58,-30.92 1270.58,-24.92 1276.58,-24.92 1276.58,-24.92 1461.38,-24.92 1461.38,-24.92 1467.38,-24.92 1473.38,-30.92 1473.38,-36.92 1473.38,-36.92 1473.38,-59.08 1473.38,-59.08 1473.38,-65.08 1467.38,-71.08 1461.38,-71.08"/>
<text xml:space="preserve" text-anchor="start" x="1282.35" y="-49.65" font-family="Helvetica,sans-Serif" font-size="13.00" fill="white"> &#160;&#160;&#160;&#160;&#160;&#160;&#160;&#160;&#160;</text>
<text xml:space="preserve" text-anchor="start" x="1319.85" y="-49.65" font-family="Helvetica,sans-Serif" font-weight="bold" font-size="13.00" fill="white">Amazon ECS Fargate</text>
<text xml:space="preserve" text-anchor="start" x="1278.98" y="-36.65" font-family="Helvetica,sans-Serif" font-size="13.00" fill="white"> &#160;&#160;&#160;&#160;&#160;&#160;&#160;&#160;&#160;Application runtime &#160;&#160;&#160;&#160;&#160;&#160;&#160;</text>
</g>
<!-- ecs&#45;&gt;order -->
<g id="edge6" class="edge">
<title>ecs&#45;&gt;order</title>
<path fill="none" stroke="#94a3b8" stroke-width="1.6" stroke-dasharray="5,2" d="M1368.98,-71.46C1368.98,-82.1 1368.98,-92.33 1368.98,-92.33 1368.98,-92.33 1368.98,-136.67 1368.98,-136.67 1368.98,-136.67 1368.98,-141.29 1368.98,-147.54"/>
<polygon fill="#94a3b8" stroke="#94a3b8" stroke-width="1.6" points="1366.18,-147.11 1368.98,-155.11 1371.78,-147.11 1366.18,-147.11"/>
</g>
<!-- inventory -->
<g id="node7" class="node">
<title>inventory</title>
<path fill="#2f6db2" stroke="#24568c" stroke-width="1.2" d="M1843.43,-70.08C1843.43,-70.08 1644.38,-70.08 1644.38,-70.08 1638.38,-70.08 1632.38,-64.08 1632.38,-58.08 1632.38,-58.08 1632.38,-35.92 1632.38,-35.92 1632.38,-29.92 1638.38,-23.92 1644.38,-23.92 1644.38,-23.92 1843.43,-23.92 1843.43,-23.92 1849.43,-23.92 1855.43,-29.92 1855.43,-35.92 1855.43,-35.92 1855.43,-58.08 1855.43,-58.08 1855.43,-64.08 1849.43,-70.08 1843.43,-70.08"/>
<text xml:space="preserve" text-anchor="start" x="1669.28" y="-48.65" font-family="Helvetica,sans-Serif" font-size="13.00" fill="white"> &#160;&#160;&#160;&#160;&#160;&#160;&#160;&#160;&#160;</text>
<text xml:space="preserve" text-anchor="start" x="1706.78" y="-48.65" font-family="Helvetica,sans-Serif" font-weight="bold" font-size="13.00" fill="white">inventory&#45;service</text>
<text xml:space="preserve" text-anchor="start" x="1646.78" y="-35.65" font-family="Helvetica,sans-Serif" font-size="13.00" fill="white"> &#160;&#160;&#160;&#160;&#160;&#160;&#160;&#160;&#160;Internal stock service &#160;&#160;&#160;&#160;&#160;&#160;&#160;</text>
</g>
<!-- ecs&#45;&gt;inventory -->
<g id="edge7" class="edge">
<title>ecs&#45;&gt;inventory</title>
<path fill="none" stroke="#94a3b8" stroke-width="1.6" stroke-dasharray="5,2" d="M1473.83,-43.83C1499.34,-42.81 1519.5,-42 1519.5,-42 1519.5,-42 1595.25,-42 1595.25,-42 1595.25,-42 1606.02,-42.36 1621.75,-42.9"/>
<polygon fill="#94a3b8" stroke="#94a3b8" stroke-width="1.6" points="1621.62,-45.69 1629.71,-43.17 1621.81,-40.1 1621.62,-45.69"/>
</g>
<!-- notification -->
<g id="node8" class="node">
<title>notification</title>
<path fill="#2f6db2" stroke="#24568c" stroke-width="1.2" d="M2183.1,-293.08C2183.1,-293.08 2013.3,-293.08 2013.3,-293.08 2007.3,-293.08 2001.3,-287.08 2001.3,-281.08 2001.3,-281.08 2001.3,-258.92 2001.3,-258.92 2001.3,-252.92 2007.3,-246.92 2013.3,-246.92 2013.3,-246.92 2183.1,-246.92 2183.1,-246.92 2189.1,-246.92 2195.1,-252.92 2195.1,-258.92 2195.1,-258.92 2195.1,-281.08 2195.1,-281.08 2195.1,-287.08 2189.1,-293.08 2183.1,-293.08"/>
<text xml:space="preserve" text-anchor="start" x="2017.58" y="-271.65" font-family="Helvetica,sans-Serif" font-size="13.00" fill="white"> &#160;&#160;&#160;&#160;&#160;&#160;&#160;&#160;&#160;</text>
<text xml:space="preserve" text-anchor="start" x="2055.08" y="-271.65" font-family="Helvetica,sans-Serif" font-weight="bold" font-size="13.00" fill="white">notification&#45;service</text>
<text xml:space="preserve" text-anchor="start" x="2015.7" y="-258.65" font-family="Helvetica,sans-Serif" font-size="13.00" fill="white"> &#160;&#160;&#160;&#160;&#160;&#160;&#160;&#160;&#160;Async consumer &#160;&#160;&#160;&#160;&#160;&#160;&#160;</text>
</g>
<!-- ecs&#45;&gt;notification -->
<g id="edge8" class="edge">
<title>ecs&#45;&gt;notification</title>
<path fill="none" stroke="#94a3b8" stroke-width="1.6" stroke-dasharray="5,2" d="M1473.8,-66.66C1617.51,-92.49 1859.55,-136 1859.55,-136 1859.55,-136 1976.79,-202.11 2046.58,-241.46"/>
<polygon fill="#94a3b8" stroke="#94a3b8" stroke-width="1.6" points="2044.81,-243.67 2053.15,-245.16 2047.56,-238.79 2044.81,-243.67"/>
</g>
<!-- order&#45;&gt;inventory -->
<g id="edge9" class="edge">
<title>order&#45;&gt;inventory</title>
<path fill="none" stroke="#4a5568" stroke-width="1.6" d="M1435.79,-157.35C1500.56,-134.08 1599.37,-98.57 1667.32,-74.16"/>
<polygon fill="#4a5568" stroke="#4a5568" stroke-width="1.6" points="1668.26,-76.8 1674.84,-71.46 1666.36,-71.53 1668.26,-76.8"/>
<text xml:space="preserve" text-anchor="middle" x="1557.38" y="-127.55" font-family="Helvetica,sans-Serif" font-size="11.00">Sync REST call</text>
</g>
<!-- rds -->
<g id="node9" class="node">
<title>rds</title>
<path fill="#4b67d1" stroke="#394fb0" stroke-width="1.2" d="M1847.55,-204.08C1847.55,-204.08 1640.25,-204.08 1640.25,-204.08 1634.25,-204.08 1628.25,-198.08 1628.25,-192.08 1628.25,-192.08 1628.25,-169.92 1628.25,-169.92 1628.25,-163.92 1634.25,-157.92 1640.25,-157.92 1640.25,-157.92 1847.55,-157.92 1847.55,-157.92 1853.55,-157.92 1859.55,-163.92 1859.55,-169.92 1859.55,-169.92 1859.55,-192.08 1859.55,-192.08 1859.55,-198.08 1853.55,-204.08 1847.55,-204.08"/>
<text xml:space="preserve" text-anchor="start" x="1642.65" y="-182.65" font-family="Helvetica,sans-Serif" font-size="13.00" fill="white"> &#160;&#160;&#160;&#160;&#160;&#160;&#160;&#160;&#160;</text>
<text xml:space="preserve" text-anchor="start" x="1680.15" y="-182.65" font-family="Helvetica,sans-Serif" font-weight="bold" font-size="13.00" fill="white">Amazon RDS PostgreSQL</text>
<text xml:space="preserve" text-anchor="start" x="1660.28" y="-169.65" font-family="Helvetica,sans-Serif" font-size="13.00" fill="white"> &#160;&#160;&#160;&#160;&#160;&#160;&#160;&#160;&#160;Orders database &#160;&#160;&#160;&#160;&#160;&#160;&#160;</text>
</g>
<!-- order&#45;&gt;rds -->
<g id="edge10" class="edge">
<title>order&#45;&gt;rds</title>
<path fill="none" stroke="#4a5568" stroke-width="1.6" d="M1476.34,-181C1520.37,-181 1571.76,-181 1617.61,-181"/>
<polygon fill="#4a5568" stroke="#4a5568" stroke-width="1.6" points="1617.49,-183.8 1625.49,-181 1617.49,-178.2 1617.49,-183.8"/>
<text xml:space="preserve" text-anchor="middle" x="1557.38" y="-182.55" font-family="Helvetica,sans-Serif" font-size="11.00">Read / write</text>
</g>
<!-- msk -->
<g id="node10" class="node">
<title>msk</title>
<path fill="#e67e22" stroke="#c46614" stroke-width="1.2" d="M1843.43,-293.08C1843.43,-293.08 1644.38,-293.08 1644.38,-293.08 1638.38,-293.08 1632.38,-287.08 1632.38,-281.08 1632.38,-281.08 1632.38,-258.92 1632.38,-258.92 1632.38,-252.92 1638.38,-246.92 1644.38,-246.92 1644.38,-246.92 1843.43,-246.92 1843.43,-246.92 1849.43,-246.92 1855.43,-252.92 1855.43,-258.92 1855.43,-258.92 1855.43,-281.08 1855.43,-281.08 1855.43,-287.08 1849.43,-293.08 1843.43,-293.08"/>
<text xml:space="preserve" text-anchor="start" x="1646.78" y="-271.65" font-family="Helvetica,sans-Serif" font-size="13.00" fill="white"> &#160;&#160;&#160;&#160;&#160;&#160;&#160;&#160;&#160;</text>
<text xml:space="preserve" text-anchor="start" x="1684.28" y="-271.65" font-family="Helvetica,sans-Serif" font-weight="bold" font-size="13.00" fill="white">Amazon MSK Serverless</text>
<text xml:space="preserve" text-anchor="start" x="1671.53" y="-258.65" font-family="Helvetica,sans-Serif" font-size="13.00" fill="white"> &#160;&#160;&#160;&#160;&#160;&#160;&#160;&#160;&#160;Order events &#160;&#160;&#160;&#160;&#160;&#160;&#160;</text>
</g>
<!-- order&#45;&gt;msk -->
<g id="edge11" class="edge">
<title>order&#45;&gt;msk</title>
<path fill="none" stroke="#4a5568" stroke-width="1.6" d="M1468.93,-204.62C1519.71,-216.74 1581.69,-231.53 1633.85,-243.97"/>
<polygon fill="#4a5568" stroke="#4a5568" stroke-width="1.6" points="1633.02,-246.65 1641.45,-245.79 1634.32,-241.21 1633.02,-246.65"/>
<text xml:space="preserve" text-anchor="middle" x="1557.38" y="-235.02" font-family="Helvetica,sans-Serif" font-size="11.00">Publish event</text>
</g>
<!-- logs -->
<g id="node11" class="node">
<title>logs</title>
<path fill="#c925d1" stroke="#a41baa" stroke-width="1.2" d="M1474.5,-365.08C1474.5,-365.08 1263.45,-365.08 1263.45,-365.08 1257.45,-365.08 1251.45,-359.08 1251.45,-353.08 1251.45,-353.08 1251.45,-330.92 1251.45,-330.92 1251.45,-324.92 1257.45,-318.92 1263.45,-318.92 1263.45,-318.92 1474.5,-318.92 1474.5,-318.92 1480.5,-318.92 1486.5,-324.92 1486.5,-330.92 1486.5,-330.92 1486.5,-353.08 1486.5,-353.08 1486.5,-359.08 1480.5,-365.08 1474.5,-365.08"/>
<text xml:space="preserve" text-anchor="start" x="1265.85" y="-343.65" font-family="Helvetica,sans-Serif" font-size="13.00" fill="white"> &#160;&#160;&#160;&#160;&#160;&#160;&#160;&#160;&#160;</text>
<text xml:space="preserve" text-anchor="start" x="1303.35" y="-343.65" font-family="Helvetica,sans-Serif" font-weight="bold" font-size="13.00" fill="white">Amazon CloudWatch Logs</text>
<text xml:space="preserve" text-anchor="start" x="1277.48" y="-330.65" font-family="Helvetica,sans-Serif" font-size="13.00" fill="white"> &#160;&#160;&#160;&#160;&#160;&#160;&#160;&#160;&#160;Centralized logging &#160;&#160;&#160;&#160;&#160;&#160;&#160;</text>
</g>
<!-- order&#45;&gt;logs -->
<g id="edge13" class="edge">
<title>order&#45;&gt;logs</title>
<path fill="none" stroke="#94a3b8" stroke-width="1.6" stroke-dasharray="5,2" d="M1368.98,-204.41C1368.98,-231.72 1368.98,-277.08 1368.98,-308.2"/>
<polygon fill="#94a3b8" stroke="#94a3b8" stroke-width="1.6" points="1366.18,-308.14 1368.98,-316.14 1371.78,-308.14 1366.18,-308.14"/>
<text xml:space="preserve" text-anchor="middle" x="1359.98" y="-257.05" font-family="Helvetica,sans-Serif" font-size="11.00" fill="#64748b">Logs</text>
</g>
<!-- inventory&#45;&gt;logs -->
<g id="edge14" class="edge">
<title>inventory&#45;&gt;logs</title>
<path fill="none" stroke="#94a3b8" stroke-width="1.6" stroke-dasharray="5,2" d="M1712.48,-70.62C1678.51,-96.98 1628.25,-136 1628.25,-136 1628.25,-136 1595.25,-255 1595.25,-255 1595.25,-255 1506.85,-289.14 1440.8,-314.65"/>
<polygon fill="#94a3b8" stroke="#94a3b8" stroke-width="1.6" points="1439.95,-311.98 1433.49,-317.47 1441.97,-317.2 1439.95,-311.98"/>
<text xml:space="preserve" text-anchor="middle" x="1557.38" y="-284.69" font-family="Helvetica,sans-Serif" font-size="11.00" fill="#64748b">Logs</text>
</g>
<!-- notification&#45;&gt;logs -->
<g id="edge15" class="edge">
<title>notification&#45;&gt;logs</title>
<path fill="none" stroke="#94a3b8" stroke-width="1.6" stroke-dasharray="5,2" d="M2000.88,-288.24C1935.01,-300.71 1859.55,-315 1859.55,-315 1859.55,-315 1642.3,-326.98 1497.24,-334.98"/>
<polygon fill="#94a3b8" stroke="#94a3b8" stroke-width="1.6" points="1497.18,-332.18 1489.35,-335.42 1497.49,-337.77 1497.18,-332.18"/>
<text xml:space="preserve" text-anchor="middle" x="1743.9" y="-329.15" font-family="Helvetica,sans-Serif" font-size="11.00" fill="#64748b">Logs</text>
</g>
<!-- msk&#45;&gt;notification -->
<g id="edge12" class="edge">
<title>msk&#45;&gt;notification</title>
<path fill="none" stroke="#4a5568" stroke-width="1.6" d="M1855.89,-270C1898.84,-270 1947.8,-270 1990.35,-270"/>
<polygon fill="#4a5568" stroke="#4a5568" stroke-width="1.6" points="1990.31,-272.8 1998.31,-270 1990.31,-267.2 1990.31,-272.8"/>
<text xml:space="preserve" text-anchor="middle" x="1930.43" y="-271.55" font-family="Helvetica,sans-Serif" font-size="11.00">Consume event</text>
</g>
</g>
</svg>
