<?xml version="1.0" encoding="UTF-8" standalone="no"?>
<!DOCTYPE svg PUBLIC "-//W3C//DTD SVG 1.1//EN"
 "http://www.w3.org/Graphics/SVG/1.1/DTD/svg11.dtd">
<!-- Generated by graphviz version 14.0.4 (20251115.1723)
 -->
<!-- Title: aws_architecture Pages: 1 -->
<svg width="1785pt" height="909pt"
 viewBox="0.00 0.00 1785.00 909.00" xmlns="http://www.w3.org/2000/svg" xmlns:xlink="http://www.w3.org/1999/xlink">
<g id="graph0" class="graph" transform="scale(1 1) rotate(0) translate(25.2 883.84)">
<title>aws_architecture</title>
<polygon fill="white" stroke="none" points="-25.2,25.2 -25.2,-883.84 1759.8,-883.84 1759.8,25.2 -25.2,25.2"/>
<g id="clust1" class="cluster">
<title>cluster_region</title>
<path fill="#f4f6f9" stroke="#d9dee7" stroke-width="1.2" d="M309.92,-98.64C309.92,-98.64 1714.6,-98.64 1714.6,-98.64 1720.6,-98.64 1726.6,-104.64 1726.6,-110.64 1726.6,-110.64 1726.6,-838.64 1726.6,-838.64 1726.6,-844.64 1720.6,-850.64 1714.6,-850.64 1714.6,-850.64 309.92,-850.64 309.92,-850.64 303.92,-850.64 297.92,-844.64 297.92,-838.64 297.92,-838.64 297.92,-110.64 297.92,-110.64 297.92,-104.64 303.92,-98.64 309.92,-98.64"/>
<text xml:space="preserve" text-anchor="start" x="921.51" y="-834.34" font-family="Helvetica,sans-Serif" font-size="14.00"> &#160;&#160;&#160;&#160;&#160;</text>
<text xml:space="preserve" text-anchor="start" x="944.01" y="-834.34" font-family="Helvetica,sans-Serif" font-weight="bold" font-size="14.00">AWS Region us&#45;east&#45;2</text>
<text xml:space="preserve" text-anchor="start" x="1088.01" y="-834.34" font-family="Helvetica,sans-Serif" font-size="14.00"> &#160;&#160;&#160;</text>
</g>
<g id="clust2" class="cluster">
<title>cluster_vpc</title>
<path fill="#fafbfc" stroke="#c7d0dc" stroke-width="1.2" d="M651.34,-175.64C651.34,-175.64 1706.6,-175.64 1706.6,-175.64 1712.6,-175.64 1718.6,-181.64 1718.6,-187.64 1718.6,-187.64 1718.6,-807.64 1718.6,-807.64 1718.6,-813.64 1712.6,-819.64 1706.6,-819.64 1706.6,-819.64 651.34,-819.64 651.34,-819.64 645.34,-819.64 639.34,-813.64 639.34,-807.64 639.34,-807.64 639.34,-187.64 639.34,-187.64 639.34,-181.64 645.34,-175.64 651.34,-175.64"/>
<text xml:space="preserve" text-anchor="start" x="1070.97" y="-803.34" font-family="Helvetica,sans-Serif" font-size="14.00"> &#160;&#160;&#160;&#160;&#160;&#160;&#160;</text>
<text xml:space="preserve" text-anchor="start" x="1100.97" y="-803.34" font-family="Helvetica,sans-Serif" font-weight="bold" font-size="14.00">Amazon VPC 10.42.0.0/16</text>
<text xml:space="preserve" text-anchor="start" x="1264.47" y="-803.34" font-family="Helvetica,sans-Serif" font-size="14.00"> &#160;&#160;&#160;&#160;&#160;</text>
</g>
<g id="clust3" class="cluster">
<title>cluster_private</title>
<path fill="#eef2f7" stroke="#d8dee8" stroke-width="1.2" d="M1116.39,-475.64C1116.39,-475.64 1698.6,-475.64 1698.6,-475.64 1704.6,-475.64 1710.6,-481.64 1710.6,-487.64 1710.6,-487.64 1710.6,-776.64 1710.6,-776.64 1710.6,-782.64 1704.6,-788.64 1698.6,-788.64 1698.6,-788.64 1116.39,-788.64 1116.39,-788.64 1110.39,-788.64 1104.39,-782.64 1104.39,-776.64 1104.39,-776.64 1104.39,-487.64 1104.39,-487.64 1104.39,-481.64 1110.39,-475.64 1116.39,-475.64"/>
<text xml:space="preserve" text-anchor="start" x="1337.74" y="-772.34" font-family="Helvetica,sans-Serif" font-size="14.00"> &#160;&#160;&#160;&#160;&#160;&#160;&#160;&#160;&#160;</text>
<text xml:space="preserve" text-anchor="start" x="1375.24" y="-772.34" font-family="Helvetica,sans-Serif" font-weight="bold" font-size="14.00">Private Subnets</text>
<text xml:space="preserve" text-anchor="start" x="1374.87" y="-758.34" font-family="Helvetica,sans-Serif" font-size="14.00">2 AZs &#160;&#160;&#160;&#160;&#160;&#160;&#160;</text>
</g>
<g id="clust4" class="cluster">
<title>cluster_public</title>
<path fill="#f7f9fc" stroke="#d8dee8" stroke-width="1.2" d="M659.34,-183.64C659.34,-183.64 1340.93,-183.64 1340.93,-183.64 1346.93,-183.64 1352.93,-189.64 1352.93,-195.64 1352.93,-195.64 1352.93,-455.64 1352.93,-455.64 1352.93,-461.64 1346.93,-467.64 1340.93,-467.64 1340.93,-467.64 659.34,-467.64 659.34,-467.64 653.34,-467.64 647.34,-461.64 647.34,-455.64 647.34,-455.64 647.34,-195.64 647.34,-195.64 647.34,-189.64 653.34,-183.64 659.34,-183.64"/>
<text xml:space="preserve" text-anchor="start" x="932.64" y="-451.34" font-family="Helvetica,sans-Serif" font-size="14.00"> &#160;&#160;&#160;&#160;&#160;&#160;&#160;&#160;&#160;</text>
<text xml:space="preserve" text-anchor="start" x="970.14" y="-451.34" font-family="Helvetica,sans-Serif" font-weight="bold" font-size="14.00">Public Subnets</text>
<text xml:space="preserve" text-anchor="start" x="967.51" y="-437.34" font-family="Helvetica,sans-Serif" font-size="14.00">2 AZs &#160;&#160;&#160;&#160;&#160;&#160;&#160;</text>
</g>
<!-- client -->
<g id="node1" class="node">
<title>client</title>
<path fill="#f8fafc" stroke="#d5dbe3" stroke-width="1.2" d="M178.92,-121.28C178.92,-121.28 12,-121.28 12,-121.28 6,-121.28 0,-115.28 0,-109.28 0,-109.28 0,-92 0,-92 0,-86 6,-80 12,-80 12,-80 178.92,-80 178.92,-80 184.92,-80 190.92,-86 190.92,-92 190.92,-92 190.92,-109.28 190.92,-109.28 190.92,-115.28 184.92,-121.28 178.92,-121.28"/>
<text xml:space="preserve" text-anchor="start" x="30.21" y="-102.24" font-family="Helvetica,sans-Serif" font-size="12.00"> &#160;&#160;&#160;&#160;&#160;</text>
<text xml:space="preserve" text-anchor="start" x="48.21" y="-102.24" font-family="Helvetica,sans-Serif" font-weight="bold" font-size="12.00">Client / Demo Script</text>
<text xml:space="preserve" text-anchor="start" x="12.96" y="-90.24" font-family="Helvetica,sans-Serif" font-size="12.00"> &#160;&#160;&#160;&#160;&#160;Browser or Python helper &#160;&#160;&#160;</text>
</g>
<!-- cognito -->
<g id="node3" class="node">
<title>cognito</title>
<path fill="#d13212" stroke="#b4230a" stroke-width="1.2" d="M474.72,-181.28C474.72,-181.28 340.05,-181.28 340.05,-181.28 334.05,-181.28 328.05,-175.28 328.05,-169.28 328.05,-169.28 328.05,-140 328.05,-140 328.05,-134 334.05,-128 340.05,-128 340.05,-128 474.72,-128 474.72,-128 480.72,-128 486.72,-134 486.72,-140 486.72,-140 486.72,-169.28 486.72,-169.28 486.72,-175.28 480.72,-181.28 474.72,-181.28"/>
<text xml:space="preserve" text-anchor="start" x="347.38" y="-162.24" font-family="Helvetica,sans-Serif" font-size="12.00" fill="white"> &#160;&#160;&#160;&#160;&#160;&#160;&#160;</text>
<text xml:space="preserve" text-anchor="start" x="371.38" y="-162.24" font-family="Helvetica,sans-Serif" font-weight="bold" font-size="12.00" fill="white">Amazon Cognito</text>
<text xml:space="preserve" text-anchor="start" x="368.76" y="-150.24" font-family="Helvetica,sans-Serif" font-size="12.00" fill="white"> &#160;&#160;&#160;&#160;&#160;&#160;&#160;User Pool</text>
<text xml:space="preserve" text-anchor="start" x="341.01" y="-138.24" font-family="Helvetica,sans-Serif" font-size="12.00" fill="white"> &#160;&#160;&#160;&#160;&#160;&#160;&#160;Hosted UI + JWT &#160;&#160;&#160;&#160;&#160;</text>
</g>
<!-- client&#45;&gt;cognito -->
<g id="edge1" class="edge">
<title>client&#45;&gt;cognito</title>
<path fill="none" stroke="#4a5568" stroke-width="1.4" d="M191.13,-117.14C231.42,-124.15 278.15,-132.3 317.75,-139.2"/>
<polygon fill="#4a5568" stroke="#4a5568" stroke-width="1.4" points="317.21,-141.94 325.57,-140.56 318.17,-136.43 317.21,-141.94"/>
<text xml:space="preserve" text-anchor="middle" x="248.42" y="-132.62" font-family="Helvetica,sans-Serif" font-size="10.00">1. Sign in</text>
</g>
<!-- apigw -->
<g id="node4" class="node">
<title>apigw</title>
<path fill="#7d3ac1" stroke="#61279a" stroke-width="1.2" d="M860.14,-160.28C860.14,-160.28 712.72,-160.28 712.72,-160.28 706.72,-160.28 700.72,-154.28 700.72,-148.28 700.72,-148.28 700.72,-119 700.72,-119 700.72,-113 706.72,-107 712.72,-107 712.72,-107 860.14,-107 860.14,-107 866.14,-107 872.14,-113 872.14,-119 872.14,-119 872.14,-148.28 872.14,-148.28 872.14,-154.28 866.14,-160.28 860.14,-160.28"/>
<text xml:space="preserve" text-anchor="start" x="713.68" y="-141.24" font-family="Helvetica,sans-Serif" font-size="12.00" fill="white"> &#160;&#160;&#160;&#160;&#160;&#160;&#160;</text>
<text xml:space="preserve" text-anchor="start" x="737.68" y="-141.24" font-family="Helvetica,sans-Serif" font-weight="bold" font-size="12.00" fill="white">Amazon API Gateway</text>
<text xml:space="preserve" text-anchor="start" x="747.43" y="-129.24" font-family="Helvetica,sans-Serif" font-size="12.00" fill="white"> &#160;&#160;&#160;&#160;&#160;&#160;&#160;HTTP API</text>
<text xml:space="preserve" text-anchor="start" x="724.93" y="-117.24" font-family="Helvetica,sans-Serif" font-size="12.00" fill="white"> &#160;&#160;&#160;&#160;&#160;&#160;&#160;JWT authorizer &#160;&#160;&#160;&#160;&#160;</text>
</g>
<!-- client&#45;&gt;apigw -->
<g id="edge2" class="edge">
<title>client&#45;&gt;apigw</title>
<path fill="none" stroke="#4a5568" stroke-width="1.4" d="M191.29,-100.52C243.54,-100.46 297.92,-100.39 297.92,-100.39 297.92,-100.39 508.84,-100.39 508.84,-100.39 508.84,-100.39 610.48,-112.61 690.54,-122.23"/>
<polygon fill="#4a5568" stroke="#4a5568" stroke-width="1.4" points="689.8,-124.96 698.08,-123.14 690.47,-119.4 689.8,-124.96"/>
<text xml:space="preserve" text-anchor="middle" x="407.38" y="-102.14" font-family="Helvetica,sans-Serif" font-size="10.00">2. Call orders/product API</text>
</g>
<!-- developer -->
<g id="node2" class="node">
<title>developer</title>
<path fill="#f8fafc" stroke="#d5dbe3" stroke-width="1.2" d="M177.42,-41.28C177.42,-41.28 13.5,-41.28 13.5,-41.28 7.5,-41.28 1.5,-35.28 1.5,-29.28 1.5,-29.28 1.5,-12 1.5,-12 1.5,-6 7.5,0 13.5,0 13.5,0 177.42,0 177.42,0 183.42,0 189.42,-6 189.42,-12 189.42,-12 189.42,-29.28 189.42,-29.28 189.42,-35.28 183.42,-41.28 177.42,-41.28"/>
<text xml:space="preserve" text-anchor="start" x="46.71" y="-22.24" font-family="Helvetica,sans-Serif" font-size="12.00"> &#160;&#160;&#160;&#160;&#160;</text>
<text xml:space="preserve" text-anchor="start" x="64.71" y="-22.24" font-family="Helvetica,sans-Serif" font-weight="bold" font-size="12.00">Developer / CI</text>
<text xml:space="preserve" text-anchor="start" x="14.46" y="-10.24" font-family="Helvetica,sans-Serif" font-size="12.00"> &#160;&#160;&#160;&#160;&#160;Build and deploy images &#160;&#160;&#160;</text>
</g>
<!-- ecr -->
<g id="node10" class="node">
<title>ecr</title>
<path fill="#2f6db2" stroke="#24568c" stroke-width="1.2" d="M470.59,-790.28C470.59,-790.28 344.17,-790.28 344.17,-790.28 338.17,-790.28 332.17,-784.28 332.17,-778.28 332.17,-778.28 332.17,-761 332.17,-761 332.17,-755 338.17,-749 344.17,-749 344.17,-749 470.59,-749 470.59,-749 476.59,-749 482.59,-755 482.59,-761 482.59,-761 482.59,-778.28 482.59,-778.28 482.59,-784.28 476.59,-790.28 470.59,-790.28"/>
<text xml:space="preserve" text-anchor="start" x="357.13" y="-771.24" font-family="Helvetica,sans-Serif" font-size="12.00" fill="white"> &#160;&#160;&#160;&#160;&#160;&#160;&#160;</text>
<text xml:space="preserve" text-anchor="start" x="381.13" y="-771.24" font-family="Helvetica,sans-Serif" font-weight="bold" font-size="12.00" fill="white">Amazon ECR</text>
<text xml:space="preserve" text-anchor="start" x="345.13" y="-759.24" font-family="Helvetica,sans-Serif" font-size="12.00" fill="white"> &#160;&#160;&#160;&#160;&#160;&#160;&#160;Service images &#160;&#160;&#160;&#160;&#160;</text>
</g>
<!-- developer&#45;&gt;ecr -->
<g id="edge26" class="edge">
<title>developer&#45;&gt;ecr</title>
<path fill="none" stroke="#94a3b8" stroke-width="1.4" stroke-dasharray="5,2" d="M142.86,-41.76C166.75,-52.64 190.92,-63.64 190.92,-63.64 190.92,-63.64 276.92,-103.39 276.92,-103.39 276.92,-103.39 297.92,-704.64 297.92,-704.64 297.92,-704.64 332.66,-725.46 362.81,-743.53"/>
<polygon fill="#94a3b8" stroke="#94a3b8" stroke-width="1.4" points="361.05,-745.74 369.35,-747.45 363.93,-740.93 361.05,-745.74"/>
<text xml:space="preserve" text-anchor="middle" x="248.42" y="-105.14" font-family="Helvetica,sans-Serif" font-size="10.00" fill="#64748b">Push images</text>
</g>
<!-- cognito&#45;&gt;apigw -->
<g id="edge3" class="edge">
<title>cognito&#45;&gt;apigw</title>
<path fill="none" stroke="#4a5568" stroke-width="1.4" d="M487.05,-144.77C514.15,-141.36 537.84,-138.39 537.84,-138.39 537.84,-138.39 620.63,-136.8 690.46,-135.46"/>
<polygon fill="#4a5568" stroke="#4a5568" stroke-width="1.4" points="690.16,-138.27 698.1,-135.32 690.05,-132.67 690.16,-138.27"/>
<text xml:space="preserve" text-anchor="middle" x="582.09" y="-140.14" font-family="Helvetica,sans-Serif" font-size="10.00">JWT validation</text>
</g>
<!-- logs -->
<g id="node8" class="node">
<title>logs</title>
<path fill="#c925d1" stroke="#a41baa" stroke-width="1.2" d="M496.84,-599.28C496.84,-599.28 317.92,-599.28 317.92,-599.28 311.92,-599.28 305.92,-593.28 305.92,-587.28 305.92,-587.28 305.92,-570 305.92,-570 305.92,-564 311.92,-558 317.92,-558 317.92,-558 496.84,-558 496.84,-558 502.84,-558 508.84,-564 508.84,-570 508.84,-570 508.84,-587.28 508.84,-587.28 508.84,-593.28 502.84,-599.28 496.84,-599.28"/>
<text xml:space="preserve" text-anchor="start" x="318.88" y="-580.24" font-family="Helvetica,sans-Serif" font-size="12.00" fill="white"> &#160;&#160;&#160;&#160;&#160;&#160;&#160;</text>
<text xml:space="preserve" text-anchor="start" x="342.88" y="-580.24" font-family="Helvetica,sans-Serif" font-weight="bold" font-size="12.00" fill="white">Amazon CloudWatch Logs</text>
<text xml:space="preserve" text-anchor="start" x="333.13" y="-568.24" font-family="Helvetica,sans-Serif" font-size="12.00" fill="white"> &#160;&#160;&#160;&#160;&#160;&#160;&#160;API + container logs &#160;&#160;&#160;&#160;&#160;</text>
</g>
<!-- apigw&#45;&gt;logs -->
<g id="edge19" class="edge">
<title>apigw&#45;&gt;logs</title>
<path fill="none" stroke="#94a3b8" stroke-width="1.4" stroke-dasharray="5,2" d="M700.45,-158.07C668.31,-167.31 639.34,-175.64 639.34,-175.64 639.34,-175.64 626.34,-350.64 626.34,-350.64 626.34,-350.64 537.84,-385.39 537.84,-385.39 537.84,-385.39 508.84,-534.64 508.84,-534.64 508.84,-534.64 488.34,-543.62 465.86,-553.47"/>
<polygon fill="#94a3b8" stroke="#94a3b8" stroke-width="1.4" points="464.99,-550.79 458.79,-556.56 467.24,-555.92 464.99,-550.79"/>
<text xml:space="preserve" text-anchor="middle" x="582.09" y="-387.14" font-family="Helvetica,sans-Serif" font-size="10.00" fill="#64748b">Access logs</text>
</g>
<!-- vpclink -->
<g id="node11" class="node">
<title>vpclink</title>
<path fill="#7d3ac1" stroke="#61279a" stroke-width="1.2" d="M1310.81,-525.28C1310.81,-525.28 1144.64,-525.28 1144.64,-525.28 1138.64,-525.28 1132.64,-519.28 1132.64,-513.28 1132.64,-513.28 1132.64,-496 1132.64,-496 1132.64,-490 1138.64,-484 1144.64,-484 1144.64,-484 1310.81,-484 1310.81,-484 1316.81,-484 1322.81,-490 1322.81,-496 1322.81,-496 1322.81,-513.28 1322.81,-513.28 1322.81,-519.28 1316.81,-525.28 1310.81,-525.28"/>
<text xml:space="preserve" text-anchor="start" x="1145.6" y="-506.24" font-family="Helvetica,sans-Serif" font-size="12.00" fill="white"> &#160;&#160;&#160;&#160;&#160;&#160;&#160;&#160;&#160;&#160;&#160;</text>
<text xml:space="preserve" text-anchor="start" x="1181.6" y="-506.24" font-family="Helvetica,sans-Serif" font-weight="bold" font-size="12.00" fill="white">API Gateway VPC Link</text>
<text xml:space="preserve" text-anchor="start" x="1146.35" y="-494.24" font-family="Helvetica,sans-Serif" font-size="12.00" fill="white"> &#160;&#160;&#160;&#160;&#160;&#160;&#160;&#160;&#160;&#160;&#160;Private integration &#160;&#160;&#160;&#160;&#160;&#160;&#160;&#160;&#160;</text>
</g>
<!-- apigw&#45;&gt;vpclink -->
<g id="edge4" class="edge">
<title>apigw&#45;&gt;vpclink</title>
<path fill="none" stroke="#4a5568" stroke-width="1.4" d="M872.49,-142.53C959.34,-151.62 1081.51,-164.39 1081.51,-164.39 1081.51,-164.39 1104.39,-475.64 1104.39,-475.64 1104.39,-475.64 1113.89,-477.89 1127.61,-481.14"/>
<polygon fill="#4a5568" stroke="#4a5568" stroke-width="1.4" points="1126.68,-483.8 1135.11,-482.92 1127.97,-478.35 1126.68,-483.8"/>
<text xml:space="preserve" text-anchor="middle" x="1014.01" y="-166.14" font-family="Helvetica,sans-Serif" font-size="10.00">Private route</text>
</g>
<!-- appconfig -->
<g id="node5" class="node">
<title>appconfig</title>
<path fill="#2ea597" stroke="#227e73" stroke-width="1.2" d="M469.47,-321.28C469.47,-321.28 345.3,-321.28 345.3,-321.28 339.3,-321.28 333.3,-315.28 333.3,-309.28 333.3,-309.28 333.3,-292 333.3,-292 333.3,-286 339.3,-280 345.3,-280 345.3,-280 469.47,-280 469.47,-280 475.47,-280 481.47,-286 481.47,-292 481.47,-292 481.47,-309.28 481.47,-309.28 481.47,-315.28 475.47,-321.28 469.47,-321.28"/>
<text xml:space="preserve" text-anchor="start" x="348.88" y="-302.24" font-family="Helvetica,sans-Serif" font-size="12.00" fill="white"> &#160;&#160;&#160;&#160;&#160;&#160;&#160;</text>
<text xml:space="preserve" text-anchor="start" x="372.88" y="-302.24" font-family="Helvetica,sans-Serif" font-weight="bold" font-size="12.00" fill="white">AWS AppConfig</text>
<text xml:space="preserve" text-anchor="start" x="346.26" y="-290.24" font-family="Helvetica,sans-Serif" font-size="12.00" fill="white"> &#160;&#160;&#160;&#160;&#160;&#160;&#160;Runtime config &#160;&#160;&#160;&#160;&#160;</text>
</g>
<!-- ssm -->
<g id="node6" class="node">
<title>ssm</title>
<path fill="#1f73b7" stroke="#175a91" stroke-width="1.2" d="M486.72,-428.28C486.72,-428.28 328.05,-428.28 328.05,-428.28 322.05,-428.28 316.05,-422.28 316.05,-416.28 316.05,-416.28 316.05,-399 316.05,-399 316.05,-393 322.05,-387 328.05,-387 328.05,-387 486.72,-387 486.72,-387 492.72,-387 498.72,-393 498.72,-399 498.72,-399 498.72,-416.28 498.72,-416.28 498.72,-422.28 492.72,-428.28 486.72,-428.28"/>
<text xml:space="preserve" text-anchor="start" x="329.01" y="-409.24" font-family="Helvetica,sans-Serif" font-size="12.00" fill="white"> &#160;&#160;&#160;&#160;&#160;&#160;&#160;</text>
<text xml:space="preserve" text-anchor="start" x="353.01" y="-409.24" font-family="Helvetica,sans-Serif" font-weight="bold" font-size="12.00" fill="white">AWS Systems Manager</text>
<text xml:space="preserve" text-anchor="start" x="342.88" y="-397.24" font-family="Helvetica,sans-Serif" font-size="12.00" fill="white"> &#160;&#160;&#160;&#160;&#160;&#160;&#160;Parameter Store &#160;&#160;&#160;&#160;&#160;</text>
</g>
<!-- secrets -->
<g id="node7" class="node">
<title>secrets</title>
<path fill="#dd6b10" stroke="#b25207" stroke-width="1.2" d="M483.72,-518.28C483.72,-518.28 331.05,-518.28 331.05,-518.28 325.05,-518.28 319.05,-512.28 319.05,-506.28 319.05,-506.28 319.05,-489 319.05,-489 319.05,-483 325.05,-477 331.05,-477 331.05,-477 483.72,-477 483.72,-477 489.72,-477 495.72,-483 495.72,-489 495.72,-489 495.72,-506.28 495.72,-506.28 495.72,-512.28 489.72,-518.28 483.72,-518.28"/>
<text xml:space="preserve" text-anchor="start" x="332.01" y="-499.24" font-family="Helvetica,sans-Serif" font-size="12.00" fill="white"> &#160;&#160;&#160;&#160;&#160;&#160;&#160;</text>
<text xml:space="preserve" text-anchor="start" x="356.01" y="-499.24" font-family="Helvetica,sans-Serif" font-weight="bold" font-size="12.00" fill="white">AWS Secrets Manager</text>
<text xml:space="preserve" text-anchor="start" x="350.38" y="-487.24" font-family="Helvetica,sans-Serif" font-size="12.00" fill="white"> &#160;&#160;&#160;&#160;&#160;&#160;&#160;DB password &#160;&#160;&#160;&#160;&#160;</text>
</g>
<!-- xray -->
<g id="node9" class="node">
<title>xray</title>
<path fill="#7c4dff" stroke="#6337d2" stroke-width="1.2" d="M477.72,-688.28C477.72,-688.28 337.05,-688.28 337.05,-688.28 331.05,-688.28 325.05,-682.28 325.05,-676.28 325.05,-676.28 325.05,-659 325.05,-659 325.05,-653 331.05,-647 337.05,-647 337.05,-647 477.72,-647 477.72,-647 483.72,-647 489.72,-653 489.72,-659 489.72,-659 489.72,-676.28 489.72,-676.28 489.72,-682.28 483.72,-688.28 477.72,-688.28"/>
<text xml:space="preserve" text-anchor="start" x="362.76" y="-669.24" font-family="Helvetica,sans-Serif" font-size="12.00" fill="white"> &#160;&#160;&#160;&#160;&#160;&#160;&#160;</text>
<text xml:space="preserve" text-anchor="start" x="386.76" y="-669.24" font-family="Helvetica,sans-Serif" font-weight="bold" font-size="12.00" fill="white">AWS X&#45;Ray</text>
<text xml:space="preserve" text-anchor="start" x="338.01" y="-657.24" font-family="Helvetica,sans-Serif" font-size="12.00" fill="white"> &#160;&#160;&#160;&#160;&#160;&#160;&#160;Distributed tracing &#160;&#160;&#160;&#160;&#160;</text>
</g>
<!-- order -->
<g id="node17" class="node">
<title>order</title>
<path fill="#2f6db2" stroke="#24568c" stroke-width="1.2" d="M905.51,-350.28C905.51,-350.28 667.34,-350.28 667.34,-350.28 661.34,-350.28 655.34,-344.28 655.34,-338.28 655.34,-338.28 655.34,-309 655.34,-309 655.34,-303 661.34,-297 667.34,-297 667.34,-297 905.51,-297 905.51,-297 911.51,-297 917.51,-303 917.51,-309 917.51,-309 917.51,-338.28 917.51,-338.28 917.51,-344.28 911.51,-350.28 905.51,-350.28"/>
<text xml:space="preserve" text-anchor="start" x="730.55" y="-331.24" font-family="Helvetica,sans-Serif" font-size="12.00" fill="white"> &#160;&#160;&#160;&#160;&#160;&#160;&#160;&#160;&#160;&#160;&#160;</text>
<text xml:space="preserve" text-anchor="start" x="766.55" y="-331.24" font-family="Helvetica,sans-Serif" font-weight="bold" font-size="12.00" fill="white">order&#45;service</text>
<text xml:space="preserve" text-anchor="start" x="740.68" y="-319.24" font-family="Helvetica,sans-Serif" font-size="12.00" fill="white"> &#160;&#160;&#160;&#160;&#160;&#160;&#160;&#160;&#160;&#160;&#160;Public API</text>
<text xml:space="preserve" text-anchor="start" x="668.3" y="-307.24" font-family="Helvetica,sans-Serif" font-size="12.00" fill="white"> &#160;&#160;&#160;&#160;&#160;&#160;&#160;&#160;&#160;&#160;&#160;AppConfig + CW agent sidecars &#160;&#160;&#160;&#160;&#160;&#160;&#160;&#160;&#160;</text>
</g>
<!-- ecr&#45;&gt;order -->
<g id="edge27" class="edge">
<title>ecr&#45;&gt;order</title>
<path fill="none" stroke="#94a3b8" stroke-width="1.4" stroke-dasharray="5,2" d="M483.08,-753.53C546.18,-739.93 626.34,-722.64 626.34,-722.64 626.34,-722.64 639.34,-365.64 639.34,-365.64 639.34,-365.64 657.59,-360.39 681.19,-353.61"/>
<polygon fill="#94a3b8" stroke="#94a3b8" stroke-width="1.4" points="681.89,-356.32 688.81,-351.42 680.35,-350.94 681.89,-356.32"/>
</g>
<!-- inventory -->
<g id="node18" class="node">
<title>inventory</title>
<path fill="#2f6db2" stroke="#24568c" stroke-width="1.2" d="M1332.93,-344.28C1332.93,-344.28 1122.51,-344.28 1122.51,-344.28 1116.51,-344.28 1110.51,-338.28 1110.51,-332.28 1110.51,-332.28 1110.51,-315 1110.51,-315 1110.51,-309 1116.51,-303 1122.51,-303 1122.51,-303 1332.93,-303 1332.93,-303 1338.93,-303 1344.93,-309 1344.93,-315 1344.93,-315 1344.93,-332.28 1344.93,-332.28 1344.93,-338.28 1338.93,-344.28 1332.93,-344.28"/>
<text xml:space="preserve" text-anchor="start" x="1160.22" y="-325.24" font-family="Helvetica,sans-Serif" font-size="12.00" fill="white"> &#160;&#160;&#160;&#160;&#160;&#160;&#160;&#160;&#160;&#160;&#160;</text>
<text xml:space="preserve" text-anchor="start" x="1196.22" y="-325.24" font-family="Helvetica,sans-Serif" font-weight="bold" font-size="12.00" fill="white">inventory&#45;service</text>
<text xml:space="preserve" text-anchor="start" x="1123.47" y="-313.24" font-family="Helvetica,sans-Serif" font-size="12.00" fill="white"> &#160;&#160;&#160;&#160;&#160;&#160;&#160;&#160;&#160;&#160;&#160;Internal stock + reservation &#160;&#160;&#160;&#160;&#160;&#160;&#160;&#160;&#160;</text>
</g>
<!-- ecr&#45;&gt;inventory -->
<g id="edge28" class="edge">
<title>ecr&#45;&gt;inventory</title>
<path fill="none" stroke="#94a3b8" stroke-width="1.4" stroke-dasharray="5,2" d="M483.08,-759.7C546.18,-751.31 626.34,-740.64 626.34,-740.64 626.34,-740.64 1081.51,-647.64 1081.51,-647.64 1081.51,-647.64 1104.39,-390.64 1104.39,-390.64 1104.39,-390.64 1145,-368.4 1179.42,-349.54"/>
<polygon fill="#94a3b8" stroke="#94a3b8" stroke-width="1.4" points="1180.48,-352.16 1186.15,-345.86 1177.79,-347.24 1180.48,-352.16"/>
</g>
<!-- notification -->
<g id="node19" class="node">
<title>notification</title>
<path fill="#2f6db2" stroke="#24568c" stroke-width="1.2" d="M863.51,-423.28C863.51,-423.28 709.34,-423.28 709.34,-423.28 703.34,-423.28 697.34,-417.28 697.34,-411.28 697.34,-411.28 697.34,-394 697.34,-394 697.34,-388 703.34,-382 709.34,-382 709.34,-382 863.51,-382 863.51,-382 869.51,-382 875.51,-388 875.51,-394 875.51,-394 875.51,-411.28 875.51,-411.28 875.51,-417.28 869.51,-423.28 863.51,-423.28"/>
<text xml:space="preserve" text-anchor="start" x="713.68" y="-404.24" font-family="Helvetica,sans-Serif" font-size="12.00" fill="white"> &#160;&#160;&#160;&#160;&#160;&#160;&#160;&#160;&#160;&#160;&#160;</text>
<text xml:space="preserve" text-anchor="start" x="749.68" y="-404.24" font-family="Helvetica,sans-Serif" font-weight="bold" font-size="12.00" fill="white">notification&#45;service</text>
<text xml:space="preserve" text-anchor="start" x="710.3" y="-392.24" font-family="Helvetica,sans-Serif" font-size="12.00" fill="white"> &#160;&#160;&#160;&#160;&#160;&#160;&#160;&#160;&#160;&#160;&#160;Kafka consumer &#160;&#160;&#160;&#160;&#160;&#160;&#160;&#160;&#160;</text>
</g>
<!-- ecr&#45;&gt;notification -->
<g id="edge29" class="edge">
<title>ecr&#45;&gt;notification</title>
<path fill="none" stroke="#94a3b8" stroke-width="1.4" stroke-dasharray="5,2" d="M480.68,-790.86C510.33,-799.57 537.84,-807.64 537.84,-807.64 537.84,-807.64 626.34,-807.64 626.34,-807.64 626.34,-807.64 639.34,-427.64 639.34,-427.64 639.34,-427.64 660.73,-423.98 687.15,-419.46"/>
<polygon fill="#94a3b8" stroke="#94a3b8" stroke-width="1.4" points="687.58,-422.23 694.99,-418.12 686.63,-416.71 687.58,-422.23"/>
</g>
<!-- alb -->
<g id="node12" class="node">
<title>alb</title>
<path fill="#3b7cff" stroke="#2c5fc9" stroke-width="1.2" d="M1690.6,-539.28C1690.6,-539.28 1470.43,-539.28 1470.43,-539.28 1464.43,-539.28 1458.43,-533.28 1458.43,-527.28 1458.43,-527.28 1458.43,-498 1458.43,-498 1458.43,-492 1464.43,-486 1470.43,-486 1470.43,-486 1690.6,-486 1690.6,-486 1696.6,-486 1702.6,-492 1702.6,-498 1702.6,-498 1702.6,-527.28 1702.6,-527.28 1702.6,-533.28 1696.6,-539.28 1690.6,-539.28"/>
<text xml:space="preserve" text-anchor="start" x="1527.27" y="-520.24" font-family="Helvetica,sans-Serif" font-size="12.00" fill="white"> &#160;&#160;&#160;&#160;&#160;&#160;&#160;&#160;&#160;&#160;&#160;</text>
<text xml:space="preserve" text-anchor="start" x="1563.27" y="-520.24" font-family="Helvetica,sans-Serif" font-weight="bold" font-size="12.00" fill="white">Internal ALB</text>
<text xml:space="preserve" text-anchor="start" x="1536.64" y="-508.24" font-family="Helvetica,sans-Serif" font-size="12.00" fill="white"> &#160;&#160;&#160;&#160;&#160;&#160;&#160;&#160;&#160;&#160;&#160;HTTP :80</text>
<text xml:space="preserve" text-anchor="start" x="1471.39" y="-496.24" font-family="Helvetica,sans-Serif" font-size="12.00" fill="white"> &#160;&#160;&#160;&#160;&#160;&#160;&#160;&#160;&#160;&#160;&#160;Target group to order&#45;service &#160;&#160;&#160;&#160;&#160;&#160;&#160;&#160;&#160;</text>
</g>
<!-- vpclink&#45;&gt;alb -->
<g id="edge5" class="edge">
<title>vpclink&#45;&gt;alb</title>
<path fill="none" stroke="#4a5568" stroke-width="1.4" d="M1323.19,-506.79C1361.61,-507.67 1406.66,-508.7 1448.19,-509.65"/>
<polygon fill="#4a5568" stroke="#4a5568" stroke-width="1.4" points="1447.93,-512.44 1455.99,-509.82 1448.05,-506.84 1447.93,-512.44"/>
<text xml:space="preserve" text-anchor="middle" x="1401.68" y="-510.87" font-family="Helvetica,sans-Serif" font-size="10.00">Private route</text>
</g>
<!-- alb&#45;&gt;order -->
<g id="edge6" class="edge">
<title>alb&#45;&gt;order</title>
<path fill="none" stroke="#4a5568" stroke-width="1.4" d="M1469.87,-485.42C1412.04,-471.06 1352.93,-456.39 1352.93,-456.39 1352.93,-456.39 1079.67,-392.24 913.06,-353.13"/>
<polygon fill="#4a5568" stroke="#4a5568" stroke-width="1.4" points="913.72,-350.41 905.29,-351.31 912.44,-355.86 913.72,-350.41"/>
<text xml:space="preserve" text-anchor="middle" x="1227.72" y="-458.14" font-family="Helvetica,sans-Serif" font-size="10.00">Forward to target group</text>
</g>
<!-- cloudmap -->
<g id="node13" class="node">
<title>cloudmap</title>
<path fill="#2e73b8" stroke="#23598e" stroke-width="1.2" d="M1320.56,-598.28C1320.56,-598.28 1134.89,-598.28 1134.89,-598.28 1128.89,-598.28 1122.89,-592.28 1122.89,-586.28 1122.89,-586.28 1122.89,-569 1122.89,-569 1122.89,-563 1128.89,-557 1134.89,-557 1134.89,-557 1320.56,-557 1320.56,-557 1326.56,-557 1332.56,-563 1332.56,-569 1332.56,-569 1332.56,-586.28 1332.56,-586.28 1332.56,-592.28 1326.56,-598.28 1320.56,-598.28"/>
<text xml:space="preserve" text-anchor="start" x="1163.6" y="-579.24" font-family="Helvetica,sans-Serif" font-size="12.00" fill="white"> &#160;&#160;&#160;&#160;&#160;&#160;&#160;&#160;&#160;&#160;&#160;</text>
<text xml:space="preserve" text-anchor="start" x="1199.6" y="-579.24" font-family="Helvetica,sans-Serif" font-weight="bold" font-size="12.00" fill="white">AWS Cloud Map</text>
<text xml:space="preserve" text-anchor="start" x="1135.85" y="-567.24" font-family="Helvetica,sans-Serif" font-size="12.00" fill="white"> &#160;&#160;&#160;&#160;&#160;&#160;&#160;&#160;&#160;&#160;&#160;Service Connect DNS &#160;&#160;&#160;&#160;&#160;&#160;&#160;&#160;&#160;</text>
</g>
<!-- rds -->
<g id="node14" class="node">
<title>rds</title>
<path fill="#4b67d1" stroke="#394fb0" stroke-width="1.2" d="M1321.31,-671.28C1321.31,-671.28 1134.14,-671.28 1134.14,-671.28 1128.14,-671.28 1122.14,-665.28 1122.14,-659.28 1122.14,-659.28 1122.14,-642 1122.14,-642 1122.14,-636 1128.14,-630 1134.14,-630 1134.14,-630 1321.31,-630 1321.31,-630 1327.31,-630 1333.31,-636 1333.31,-642 1333.31,-642 1333.31,-659.28 1333.31,-659.28 1333.31,-665.28 1327.31,-671.28 1321.31,-671.28"/>
<text xml:space="preserve" text-anchor="start" x="1135.1" y="-652.24" font-family="Helvetica,sans-Serif" font-size="12.00" fill="white"> &#160;&#160;&#160;&#160;&#160;&#160;&#160;&#160;&#160;&#160;&#160;</text>
<text xml:space="preserve" text-anchor="start" x="1171.1" y="-652.24" font-family="Helvetica,sans-Serif" font-weight="bold" font-size="12.00" fill="white">Amazon RDS PostgreSQL</text>
<text xml:space="preserve" text-anchor="start" x="1163.6" y="-640.24" font-family="Helvetica,sans-Serif" font-size="12.00" fill="white"> &#160;&#160;&#160;&#160;&#160;&#160;&#160;&#160;&#160;&#160;&#160;Orders data &#160;&#160;&#160;&#160;&#160;&#160;&#160;&#160;&#160;</text>
</g>
<!-- msk -->
<g id="node15" class="node">
<title>msk</title>
<path fill="#e67e22" stroke="#c46614" stroke-width="1.2" d="M1331.06,-744.28C1331.06,-744.28 1124.39,-744.28 1124.39,-744.28 1118.39,-744.28 1112.39,-738.28 1112.39,-732.28 1112.39,-732.28 1112.39,-715 1112.39,-715 1112.39,-709 1118.39,-703 1124.39,-703 1124.39,-703 1331.06,-703 1331.06,-703 1337.06,-703 1343.06,-709 1343.06,-715 1343.06,-715 1343.06,-732.28 1343.06,-732.28 1343.06,-738.28 1337.06,-744.28 1331.06,-744.28"/>
<text xml:space="preserve" text-anchor="start" x="1139.22" y="-725.24" font-family="Helvetica,sans-Serif" font-size="12.00" fill="white"> &#160;&#160;&#160;&#160;&#160;&#160;&#160;&#160;&#160;&#160;&#160;</text>
<text xml:space="preserve" text-anchor="start" x="1175.22" y="-725.24" font-family="Helvetica,sans-Serif" font-weight="bold" font-size="12.00" fill="white">Amazon MSK Serverless</text>
<text xml:space="preserve" text-anchor="start" x="1125.35" y="-713.24" font-family="Helvetica,sans-Serif" font-size="12.00" fill="white"> &#160;&#160;&#160;&#160;&#160;&#160;&#160;&#160;&#160;&#160;&#160;Kafka topic orders.created &#160;&#160;&#160;&#160;&#160;&#160;&#160;&#160;&#160;</text>
</g>
<!-- ecs -->
<g id="node16" class="node">
<title>ecs</title>
<path fill="#ff9900" stroke="#d27a00" stroke-width="1.2" d="M890.14,-233.28C890.14,-233.28 682.72,-233.28 682.72,-233.28 676.72,-233.28 670.72,-227.28 670.72,-221.28 670.72,-221.28 670.72,-204 670.72,-204 670.72,-198 676.72,-192 682.72,-192 682.72,-192 890.14,-192 890.14,-192 896.14,-192 902.14,-198 902.14,-204 902.14,-204 902.14,-221.28 902.14,-221.28 902.14,-227.28 896.14,-233.28 890.14,-233.28"/>
<text xml:space="preserve" text-anchor="start" x="707.3" y="-214.24" font-family="Helvetica,sans-Serif" font-size="12.00" fill="white"> &#160;&#160;&#160;&#160;&#160;&#160;&#160;&#160;&#160;&#160;&#160;</text>
<text xml:space="preserve" text-anchor="start" x="743.3" y="-214.24" font-family="Helvetica,sans-Serif" font-weight="bold" font-size="12.00" fill="white">Amazon ECS Fargate</text>
<text xml:space="preserve" text-anchor="start" x="683.68" y="-202.24" font-family="Helvetica,sans-Serif" font-size="12.00" fill="white"> &#160;&#160;&#160;&#160;&#160;&#160;&#160;&#160;&#160;&#160;&#160;Cluster + Service Connect &#160;&#160;&#160;&#160;&#160;&#160;&#160;&#160;&#160;</text>
</g>
<!-- ecs&#45;&gt;order -->
<g id="edge7" class="edge">
<title>ecs&#45;&gt;order</title>
<path fill="none" stroke="#94a3b8" stroke-width="1.4" stroke-dasharray="5,2" d="M786.43,-233.73C786.43,-242.04 786.43,-249.64 786.43,-249.64 786.43,-249.64 786.43,-272.22 786.43,-286.92"/>
<polygon fill="#94a3b8" stroke="#94a3b8" stroke-width="1.4" points="783.63,-286.63 786.43,-294.63 789.23,-286.63 783.63,-286.63"/>
</g>
<!-- ecs&#45;&gt;inventory -->
<g id="edge8" class="edge">
<title>ecs&#45;&gt;inventory</title>
<path fill="none" stroke="#94a3b8" stroke-width="1.4" stroke-dasharray="5,2" d="M871.35,-233.85C946.1,-252.73 1055.34,-280.34 1132.94,-299.95"/>
<polygon fill="#94a3b8" stroke="#94a3b8" stroke-width="1.4" points="1132.23,-302.65 1140.67,-301.9 1133.6,-297.22 1132.23,-302.65"/>
</g>
<!-- ecs&#45;&gt;notification -->
<g id="edge9" class="edge">
<title>ecs&#45;&gt;notification</title>
<path fill="none" stroke="#94a3b8" stroke-width="1.4" stroke-dasharray="5,2" d="M732.84,-233.84C669.94,-258.72 574.09,-296.64 574.09,-296.64 574.09,-296.64 574.09,-350.64 574.09,-350.64 574.09,-350.64 639.34,-366.64 639.34,-366.64 639.34,-366.64 662.47,-372.3 690.39,-379.13"/>
<polygon fill="#94a3b8" stroke="#94a3b8" stroke-width="1.4" points="689.52,-381.8 697.96,-380.99 690.85,-376.36 689.52,-381.8"/>
</g>
<!-- order&#45;&gt;appconfig -->
<g id="edge14" class="edge">
<title>order&#45;&gt;appconfig</title>
<path fill="none" stroke="#94a3b8" stroke-width="1.4" stroke-dasharray="5,2" d="M731.86,-296.51C690.17,-275.39 639.34,-249.64 639.34,-249.64 639.34,-249.64 626.34,-186.39 626.34,-186.39 626.34,-186.39 537.84,-186.39 537.84,-186.39 537.84,-186.39 478.1,-239.11 439.78,-272.93"/>
<polygon fill="#94a3b8" stroke="#94a3b8" stroke-width="1.4" points="438.16,-270.62 434.02,-278.02 441.87,-274.82 438.16,-270.62"/>
<text xml:space="preserve" text-anchor="middle" x="582.09" y="-188.14" font-family="Helvetica,sans-Serif" font-size="10.00" fill="#64748b">Runtime config</text>
</g>
<!-- order&#45;&gt;ssm -->
<g id="edge15" class="edge">
<title>order&#45;&gt;ssm</title>
<path fill="none" stroke="#94a3b8" stroke-width="1.4" stroke-dasharray="5,2" d="M731.86,-296.51C690.17,-275.39 639.34,-249.64 639.34,-249.64 639.34,-249.64 626.34,-234.39 626.34,-234.39 626.34,-234.39 537.84,-234.39 537.84,-234.39 537.84,-234.39 508.84,-337.64 508.84,-337.64 508.84,-337.64 475.31,-361 446.99,-380.74"/>
<polygon fill="#94a3b8" stroke="#94a3b8" stroke-width="1.4" points="445.5,-378.37 440.53,-385.24 448.7,-382.96 445.5,-378.37"/>
<text xml:space="preserve" text-anchor="middle" x="582.09" y="-236.14" font-family="Helvetica,sans-Serif" font-size="10.00" fill="#64748b">Params</text>
</g>
<!-- order&#45;&gt;secrets -->
<g id="edge18" class="edge">
<title>order&#45;&gt;secrets</title>
<path fill="none" stroke="#94a3b8" stroke-width="1.4" stroke-dasharray="5,2" d="M654.74,-330.9C595.23,-334.2 537.84,-337.39 537.84,-337.39 537.84,-337.39 508.84,-444.64 508.84,-444.64 508.84,-444.64 482.65,-458.46 457.01,-471.99"/>
<polygon fill="#94a3b8" stroke="#94a3b8" stroke-width="1.4" points="456.02,-469.34 450.25,-475.55 458.63,-474.3 456.02,-469.34"/>
<text xml:space="preserve" text-anchor="middle" x="582.09" y="-339.14" font-family="Helvetica,sans-Serif" font-size="10.00" fill="#64748b">DB secret</text>
</g>
<!-- order&#45;&gt;logs -->
<g id="edge20" class="edge">
<title>order&#45;&gt;logs</title>
<path fill="none" stroke="#94a3b8" stroke-width="1.4" stroke-dasharray="5,2" d="M690.84,-350.83C662.76,-358.91 639.34,-365.64 639.34,-365.64 639.34,-365.64 626.34,-398.64 626.34,-398.64 626.34,-398.64 537.84,-433.39 537.84,-433.39 537.84,-433.39 508.84,-534.64 508.84,-534.64 508.84,-534.64 488.34,-543.62 465.86,-553.47"/>
<polygon fill="#94a3b8" stroke="#94a3b8" stroke-width="1.4" points="464.99,-550.79 458.79,-556.56 467.24,-555.92 464.99,-550.79"/>
<text xml:space="preserve" text-anchor="middle" x="582.09" y="-435.14" font-family="Helvetica,sans-Serif" font-size="10.00" fill="#64748b">App logs</text>
</g>
<!-- order&#45;&gt;xray -->
<g id="edge23" class="edge">
<title>order&#45;&gt;xray</title>
<path fill="none" stroke="#94a3b8" stroke-width="1.4" stroke-dasharray="5,2" d="M690.84,-350.83C662.76,-358.91 639.34,-365.64 639.34,-365.64 639.34,-365.64 626.34,-532.64 626.34,-532.64 626.34,-532.64 508.84,-615.64 508.84,-615.64 508.84,-615.64 483.41,-628.81 458.13,-641.89"/>
<polygon fill="#94a3b8" stroke="#94a3b8" stroke-width="1.4" points="456.94,-639.35 451.12,-645.52 459.51,-644.32 456.94,-639.35"/>
<text xml:space="preserve" text-anchor="middle" x="582.09" y="-595.13" font-family="Helvetica,sans-Serif" font-size="10.00" fill="#64748b">Traces</text>
</g>
<!-- order&#45;&gt;rds -->
<g id="edge11" class="edge">
<title>order&#45;&gt;rds</title>
<path fill="none" stroke="#4a5568" stroke-width="1.4" d="M871.65,-350.83C896.66,-358.91 917.51,-365.64 917.51,-365.64 917.51,-365.64 946.51,-419.64 946.51,-419.64 946.51,-419.64 1081.51,-493.39 1081.51,-493.39 1081.51,-493.39 1104.39,-614.64 1104.39,-614.64 1104.39,-614.64 1122.8,-620.06 1145.34,-626.69"/>
<polygon fill="#4a5568" stroke="#4a5568" stroke-width="1.4" points="1144.35,-629.32 1152.82,-628.89 1145.93,-623.95 1144.35,-629.32"/>
<text xml:space="preserve" text-anchor="middle" x="1014.01" y="-495.14" font-family="Helvetica,sans-Serif" font-size="10.00">4. Persist order</text>
</g>
<!-- order&#45;&gt;msk -->
<g id="edge12" class="edge">
<title>order&#45;&gt;msk</title>
<path fill="none" stroke="#4a5568" stroke-width="1.4" d="M871.65,-350.83C896.66,-358.91 917.51,-365.64 917.51,-365.64 917.51,-365.64 946.51,-508.64 946.51,-508.64 946.51,-508.64 1081.51,-544.39 1081.51,-544.39 1081.51,-544.39 1104.39,-687.64 1104.39,-687.64 1104.39,-687.64 1122.8,-693.06 1145.34,-699.69"/>
<polygon fill="#4a5568" stroke="#4a5568" stroke-width="1.4" points="1144.35,-702.32 1152.82,-701.89 1145.93,-696.95 1144.35,-702.32"/>
<text xml:space="preserve" text-anchor="middle" x="1014.01" y="-546.14" font-family="Helvetica,sans-Serif" font-size="10.00">5. Publish event</text>
</g>
<!-- order&#45;&gt;inventory -->
<g id="edge10" class="edge">
<title>order&#45;&gt;inventory</title>
<path fill="none" stroke="#4a5568" stroke-width="1.4" d="M918.04,-323.64C975.66,-323.64 1043.12,-323.64 1100.25,-323.64"/>
<polygon fill="#4a5568" stroke="#4a5568" stroke-width="1.4" points="1099.94,-326.44 1107.94,-323.64 1099.94,-320.84 1099.94,-326.44"/>
<text xml:space="preserve" text-anchor="middle" x="1014.01" y="-325.39" font-family="Helvetica,sans-Serif" font-size="10.00">3. Sync HTTP inventory check</text>
</g>
<!-- inventory&#45;&gt;ssm -->
<g id="edge16" class="edge">
<title>inventory&#45;&gt;ssm</title>
<path fill="none" stroke="#94a3b8" stroke-width="1.4" stroke-dasharray="5,2" d="M1171.64,-344.8C1139.17,-357.28 1104.39,-370.64 1104.39,-370.64 1104.39,-370.64 1081.51,-616.64 1081.51,-616.64 1081.51,-616.64 946.51,-616.64 946.51,-616.64 946.51,-616.64 639.34,-439.64 639.34,-439.64 639.34,-439.64 626.34,-281.64 626.34,-281.64 626.34,-281.64 537.84,-281.64 537.84,-281.64 537.84,-281.64 508.84,-337.64 508.84,-337.64 508.84,-337.64 475.31,-361 446.99,-380.74"/>
<polygon fill="#94a3b8" stroke="#94a3b8" stroke-width="1.4" points="445.5,-378.37 440.53,-385.24 448.7,-382.96 445.5,-378.37"/>
<text xml:space="preserve" text-anchor="middle" x="786.43" y="-599.98" font-family="Helvetica,sans-Serif" font-size="10.00" fill="#64748b">Agent config</text>
</g>
<!-- inventory&#45;&gt;logs -->
<g id="edge21" class="edge">
<title>inventory&#45;&gt;logs</title>
<path fill="none" stroke="#94a3b8" stroke-width="1.4" stroke-dasharray="5,2" d="M1188.01,-344.84C1152.17,-364.47 1104.39,-390.64 1104.39,-390.64 1104.39,-390.64 1081.51,-625.64 1081.51,-625.64 1081.51,-625.64 946.51,-625.64 946.51,-625.64 946.51,-625.64 639.34,-617.64 639.34,-617.64 639.34,-617.64 626.34,-456.64 626.34,-456.64 626.34,-456.64 537.84,-456.64 537.84,-456.64 537.84,-456.64 508.84,-534.64 508.84,-534.64 508.84,-534.64 488.34,-543.62 465.86,-553.47"/>
<polygon fill="#94a3b8" stroke="#94a3b8" stroke-width="1.4" points="464.99,-550.79 458.79,-556.56 467.24,-555.92 464.99,-550.79"/>
<text xml:space="preserve" text-anchor="middle" x="786.43" y="-626.56" font-family="Helvetica,sans-Serif" font-size="10.00" fill="#64748b">App logs</text>
</g>
<!-- inventory&#45;&gt;xray -->
<g id="edge24" class="edge">
<title>inventory&#45;&gt;xray</title>
<path fill="none" stroke="#94a3b8" stroke-width="1.4" stroke-dasharray="5,2" d="M1188.01,-344.84C1152.17,-364.47 1104.39,-390.64 1104.39,-390.64 1104.39,-390.64 1081.51,-634.64 1081.51,-634.64 1081.51,-634.64 917.51,-643.64 917.51,-643.64 917.51,-643.64 646.69,-656.41 500.08,-663.32"/>
<polygon fill="#94a3b8" stroke="#94a3b8" stroke-width="1.4" points="500.16,-660.51 492.3,-663.68 500.42,-666.1 500.16,-660.51"/>
<text xml:space="preserve" text-anchor="middle" x="786.43" y="-658.19" font-family="Helvetica,sans-Serif" font-size="10.00" fill="#64748b">Traces</text>
</g>
<!-- notification&#45;&gt;ssm -->
<g id="edge17" class="edge">
<title>notification&#45;&gt;ssm</title>
<path fill="none" stroke="#94a3b8" stroke-width="1.4" stroke-dasharray="5,2" d="M699.6,-381.49C667.8,-373.65 639.34,-366.64 639.34,-366.64 639.34,-366.64 626.34,-289.39 626.34,-289.39 626.34,-289.39 537.84,-289.39 537.84,-289.39 537.84,-289.39 508.84,-337.64 508.84,-337.64 508.84,-337.64 475.31,-361 446.99,-380.74"/>
<polygon fill="#94a3b8" stroke="#94a3b8" stroke-width="1.4" points="445.5,-378.37 440.53,-385.24 448.7,-382.96 445.5,-378.37"/>
<text xml:space="preserve" text-anchor="middle" x="582.09" y="-291.14" font-family="Helvetica,sans-Serif" font-size="10.00" fill="#64748b">Topic + agent config</text>
</g>
<!-- notification&#45;&gt;logs -->
<g id="edge22" class="edge">
<title>notification&#45;&gt;logs</title>
<path fill="none" stroke="#94a3b8" stroke-width="1.4" stroke-dasharray="5,2" d="M697.08,-417.76C666.31,-423.02 639.34,-427.64 639.34,-427.64 639.34,-427.64 626.34,-453.64 626.34,-453.64 626.34,-453.64 508.84,-534.64 508.84,-534.64 508.84,-534.64 488.34,-543.62 465.86,-553.47"/>
<polygon fill="#94a3b8" stroke="#94a3b8" stroke-width="1.4" points="464.99,-550.79 458.79,-556.56 467.24,-555.92 464.99,-550.79"/>
<text xml:space="preserve" text-anchor="middle" x="582.09" y="-514.67" font-family="Helvetica,sans-Serif" font-size="10.00" fill="#64748b">App logs</text>
</g>
<!-- notification&#45;&gt;xray -->
<g id="edge25" class="edge">
<title>notification&#45;&gt;xray</title>
<path fill="none" stroke="#94a3b8" stroke-width="1.4" stroke-dasharray="5,2" d="M697.08,-417.76C666.31,-423.02 639.34,-427.64 639.34,-427.64 639.34,-427.64 626.34,-703.64 626.34,-703.64 626.34,-703.64 537.84,-703.64 537.84,-703.64 537.84,-703.64 518.01,-698.12 493.87,-691.41"/>
<polygon fill="#94a3b8" stroke="#94a3b8" stroke-width="1.4" points="494.94,-688.8 486.48,-689.36 493.44,-694.2 494.94,-688.8"/>
<text xml:space="preserve" text-anchor="middle" x="582.09" y="-705.39" font-family="Helvetica,sans-Serif" font-size="10.00" fill="#64748b">Traces</text>
</g>
<!-- notification&#45;&gt;msk -->
<g id="edge13" class="edge">
<title>notification&#45;&gt;msk</title>
<path fill="none" stroke="#4a5568" stroke-width="1.4" d="M885.9,-421.57C904.11,-425.06 917.51,-427.64 917.51,-427.64 917.51,-427.64 946.51,-563.64 946.51,-563.64 946.51,-563.64 1104.39,-687.64 1104.39,-687.64 1104.39,-687.64 1128.22,-694.65 1154.85,-702.49"/>
<polygon fill="#4a5568" stroke="#4a5568" stroke-width="1.4" points="886.46,-418.82 878.07,-420.06 885.4,-424.32 886.46,-418.82"/>
<text xml:space="preserve" text-anchor="middle" x="1014.01" y="-671.39" font-family="Helvetica,sans-Serif" font-size="10.00">6. Consume event</text>
</g>
</g>
</svg>
